<svg xmlns="http://www.w3.org/2000/svg" viewBox="0 0 32 32">
  <circle cx="16" cy="16" r="16" fill="#ffffff"/>
  
  <!-- Teal shadow stethoscope -->
  <path d="M7 14c0-1.1.9-2 2-2h2c1.1 0 2 .9 2 2v4c0 1.66-1.34 3-3 3s-3-1.34-3-3v-4zm9-9c3.31 0 6 2.69 6 6s-2.69 6-6 6-6-2.69-6-6 2.69-6 6-6z" fill="#40E0D0" transform="translate(0.5, 0.5)"/>
  
  <!-- Golden main stethoscope -->
  <path d="M6 13c0-1.1.9-2 2-2h2c1.1 0 2 .9 2 2v4c0 1.66-1.34 3-3 3s-3-1.34-3-3v-4zm9-9c3.31 0 6 2.69 6 6s-2.69 6-6 6-6-2.69-6-6 2.69-6 6-6z" fill="#FFD700"/>
  
  <!-- Simplified particles -->
  <circle cx="4" cy="4" r="1.5" fill="#40E0D0" opacity="0.7" />
  <circle cx="28" cy="6" r="1.5" fill="#40E0D0" opacity="0.7" />
  <circle cx="8" cy="28" r="1.5" fill="#40E0D0" opacity="0.7" />
  <circle cx="24" cy="20" r="1.5" fill="#40E0D0" opacity="0.7" />
</svg>