<svg xmlns="http://www.w3.org/2000/svg" viewBox="0 0 32 32">
  <circle cx="16" cy="16" r="16" fill="white"/>
  
  <!-- Teal shadow stethoscope -->
  <path d="M8 20.5a1.5 1.5 0 0 0 3 0v-7a1.5 1.5 0 0 0-3 0m9-5.5a5.5 5.5 0 1 0 0 11 5.5 5.5 0 0 0 0-11m0 2a3.5 3.5 0 1 1 0 7 3.5 3.5 0 0 1 0-7" fill="#40E0D0" transform="translate(2, 2)"/>
  
  <!-- Golden main stethoscope -->
  <path d="M8 20.5a1.5 1.5 0 0 0 3 0v-7a1.5 1.5 0 0 0-3 0m9-5.5a5.5 5.5 0 1 0 0 11 5.5 5.5 0 0 0 0-11m0 2a3.5 3.5 0 1 1 0 7 3.5 3.5 0 0 1 0-7" fill="#FFD700"/>
</svg>