<svg xmlns="http://www.w3.org/2000/svg" viewBox="0 0 32 32">
  <circle cx="16" cy="16" r="16" fill="white"/>
  
  <!-- Teal shadow stethoscope -->
  <path d="M6.5 14.5C6.5 13.12 7.62 12 9 12H11C12.38 12 13.5 13.12 13.5 14.5V19C13.5 21.21 11.71 23 9.5 23C7.29 23 5.5 21.21 5.5 19V14.5C5.5 14.22 5.72 14 6 14H9C9.28 14 9.5 14.22 9.5 14.5V19C9.5 19.28 9.28 19.5 9 19.5C8.72 19.5 8.5 19.28 8.5 19V15.5H6.5V19C6.5 20.66 7.84 22 9.5 22C11.16 22 12.5 20.66 12.5 19V14.5C12.5 13.67 11.83 13 11 13H9C8.17 13 7.5 13.67 7.5 14.5V15H6.5V14.5ZM17 5C20.87 5 24 8.13 24 12C24 15.87 20.87 19 17 19C13.13 19 10 15.87 10 12C10 8.13 13.13 5 17 5ZM17 6C13.69 6 11 8.69 11 12C11 15.31 13.69 18 17 18C20.31 18 23 15.31 23 12C23 8.69 20.31 6 17 6Z" fill="#40E0D0" transform="translate(1, 1)"/>
  
  <!-- Golden main stethoscope -->
  <path d="M6.5 14.5C6.5 13.12 7.62 12 9 12H11C12.38 12 13.5 13.12 13.5 14.5V19C13.5 21.21 11.71 23 9.5 23C7.29 23 5.5 21.21 5.5 19V14.5C5.5 14.22 5.72 14 6 14H9C9.28 14 9.5 14.22 9.5 14.5V19C9.5 19.28 9.28 19.5 9 19.5C8.72 19.5 8.5 19.28 8.5 19V15.5H6.5V19C6.5 20.66 7.84 22 9.5 22C11.16 22 12.5 20.66 12.5 19V14.5C12.5 13.67 11.83 13 11 13H9C8.17 13 7.5 13.67 7.5 14.5V15H6.5V14.5ZM17 5C20.87 5 24 8.13 24 12C24 15.87 20.87 19 17 19C13.13 19 10 15.87 10 12C10 8.13 13.13 5 17 5ZM17 6C13.69 6 11 8.69 11 12C11 15.31 13.69 18 17 18C20.31 18 23 15.31 23 12C23 8.69 20.31 6 17 6Z" fill="#FFD700"/>
  
  <!-- Simplified particles -->
  <circle cx="4" cy="4" r="1" fill="#40E0D0" opacity="0.5" />
  <circle cx="28" cy="6" r="1" fill="#40E0D0" opacity="0.5" />
  <circle cx="8" cy="28" r="1" fill="#40E0D0" opacity="0.5" />
  <circle cx="24" cy="20" r="1" fill="#40E0D0" opacity="0.5" />
</svg>