<svg xmlns="http://www.w3.org/2000/svg" viewBox="0 0 32 32">
  <!-- Golden main stethoscope -->
  <path d="M6 8.5C6 6.01 8.01 4 10.5 4H13c2.49 0 4.5 2.01 4.5 4.5V20c0 2.21-1.79 4-4 4s-4-1.79-4-4v-5c0-.55.45-1 1-1s1 .45 1 1v5c0 1.1.9 2 2 2s2-.9 2-2V8.5c0-1.38-1.12-2.5-2.5-2.5h-2.5C9.12 6 8 7.12 8 8.5V10H6V8.5zM19 4c4.42 0 8 3.58 8 8s-3.58 8-8 8-8-3.58-8-8 3.58-8 8-8zm0 2c-3.31 0-6 2.69-6 6s2.69 6 6 6 6-2.69 6-6-2.69-6-6-6z" fill="#FFD700"/>
  
  <!-- Teal shadow stethoscope -->
  <path d="M6 8.5C6 6.01 8.01 4 10.5 4H13c2.49 0 4.5 2.01 4.5 4.5V20c0 2.21-1.79 4-4 4s-4-1.79-4-4v-5c0-.55.45-1 1-1s1 .45 1 1v5c0 1.1.9 2 2 2s2-.9 2-2V8.5c0-1.38-1.12-2.5-2.5-2.5h-2.5C9.12 6 8 7.12 8 8.5V10H6V8.5zM19 4c4.42 0 8 3.58 8 8s-3.58 8-8 8-8-3.58-8-8 3.58-8 8-8zm0 2c-3.31 0-6 2.69-6 6s2.69 6 6 6 6-2.69 6-6-2.69-6-6-6z" fill="#40E0D0" transform="translate(1, 1)"/>
</svg>